<?xml version="1.0" encoding="UTF-8" standalone="no"?>
<svg
   width="41.447163mm"
   height="35.488789mm"
   viewBox="15.166420 16.241786 78.391153 78.391153"
   version="1.1"
   xmlns="http://www.w3.org/2000/svg">
  <defs/>
  <g transform="translate(0.000000,124.724409) scale(0.031181,-0.031181)" fill="currentColor" stroke="none">
    <path d="M2500 3426 c-168 -48 -367 -205 -585 -461 -109 -127 -115 -133 -115
-109 0 76 -60 178 -124 211 -151 78 -403 -111 -547 -410 -51 -106 -78 -203
-85 -302 -14 -212 -9 -195 -79 -286 -106 -136 -135 -264 -90 -399 31 -96 82
-161 193 -247 18 -14 24 -30 27 -69 4 -56 23 -109 55 -154 25 -36 103 -87 150
-100 33 -9 38 -14 48 -60 21 -89 72 -150 154 -184 22 -10 34 -22 35 -36 3 -30
47 -121 75 -152 65 -72 184 -96 269 -53 46 24 93 70 111 110 7 16 18 20 49 19
66 -3 148 44 189 110 27 41 40 53 55 50 59 -12 80 -12 123 1 51 16 98 58 128
115 19 37 25 144 12 209 -14 69 17 79 89 29 127 -87 267 -86 350 4 38 40 66
118 65 178 -1 58 -28 136 -56 159 -23 19 -20 34 12 53 47 28 126 110 155 162
59 106 70 223 27 310 -22 46 -102 126 -126 126 -28 0 -23 21 20 87 68 105 84
148 93 248 10 116 -39 208 -137 257 -48 24 -65 27 -136 24 l-80 -2 27 95 c34
120 35 249 2 321 -25 55 -73 105 -127 132 -50 26 -162 33 -226 14z m197 -62
c53 -19 106 -80 123 -139 11 -40 10 -159 -3 -205 -16 -62 -31 -107 -47 -146
-26 -59 -32 -94 -17 -94 7 0 39 9 71 19 98 30 192 14 249 -43 102 -102 63
-288 -100 -479 -24 -28 -42 -52 -40 -53 1 -1 20 -4 42 -6 122 -14 207 -123
190 -247 -15 -114 -98 -223 -225 -297 -41 -24 -69 -44 -63 -44 21 0 83 -62
105 -103 44 -87 14 -205 -65 -252 -79 -46 -147 -37 -258 35 -70 45 -110 46
-147 4 -20 -22 -22 -32 -15 -72 4 -26 8 -77 7 -113 0 -55 -4 -73 -26 -105 -14
-22 -38 -46 -54 -56 -36 -20 -117 -19 -160 3 l-30 16 -18 -51 c-34 -96 -126
-154 -213 -135 -28 6 -33 4 -39 -15 -35 -119 -182 -177 -277 -109 -57 40 -78
73 -98 150 -15 61 -19 68 -45 74 -72 14 -117 59 -140 139 -27 92 -31 98 -66
105 -114 25 -190 115 -192 229 l-1 59 -66 50 c-140 109 -194 234 -165 386 9
48 30 86 93 168 62 82 79 129 82 223 5 166 23 243 86 375 78 164 209 314 321
369 46 23 67 27 106 24 100 -10 140 -71 148 -222 l5 -100 46 50 c26 27 71 78
100 114 150 182 301 330 411 403 164 109 269 134 385 91z M2510 3201 c-140
-53 -285 -181 -517 -456 -175 -206 -268 -284 -340 -285 -31 0 -71 40 -77 77
-2 18 4 76 15 130 22 114 22 158 -3 180 -28 25 -67 7 -138 -66 -75 -78 -138
-184 -174 -293 -28 -82 -37 -140 -40 -258 -3 -104 -28 -175 -92 -260 -89 -118
-102 -159 -77 -235 17 -50 53 -92 120 -136 82 -55 98 -81 99 -165 2 -105 17
-124 114 -145 72 -15 103 -52 116 -137 3 -19 9 -45 14 -57 9 -23 40 -52 49
-46 21 15 29 32 32 62 5 61 32 76 68 38 23 -25 30 -58 32 -164 4 -151 58 -226
111 -154 24 33 29 86 14 158 -16 77 -12 119 12 144 40 40 89 4 99 -72 15 -109
104 -150 139 -64 13 31 14 46 3 98 -13 67 -8 104 17 130 28 27 65 14 102 -35
40 -53 76 -72 109 -57 27 12 42 53 32 90 -34 123 59 316 203 423 35 26 131 79
214 119 194 93 254 149 254 235 0 40 -41 70 -94 70 -23 0 -71 -9 -109 -19 -69
-20 -115 -19 -129 2 -36 55 -4 121 142 291 104 123 146 187 150 231 5 48 -1
63 -28 74 -53 22 -108 1 -246 -93 -53 -36 -103 -67 -111 -67 -8 -1 -21 -2 -27
-3 -30 -4 -67 17 -78 45 -20 48 -4 103 80 279 114 240 133 322 87 375 -28 33
-85 39 -147 16z m22 -938 c27 -24 22 -59 -19 -143 -39 -80 -44 -118 -29 -235
14 -112 -41 -207 -168 -291 -44 -29 -96 -66 -114 -80 -22 -18 -48 -28 -80 -31
-66 -7 -104 22 -151 112 -28 52 -46 74 -71 86 -60 29 -61 99 -1 99 46 0 132
72 314 263 214 224 271 263 319 220z m-1104 -447 l57 -54 18 25 c30 39 61 49
91 29 39 -25 42 -57 10 -120 l-27 -54 26 -32 c29 -34 34 -66 14 -91 -23 -29
-48 -31 -83 -4 -32 25 -33 25 -43 6 -16 -28 -40 -51 -56 -51 -25 0 -67 45 -71
75 -1 17 6 44 18 63 22 36 24 31 -36 97 -57 62 -69 112 -36 145 31 31 57 24
118 -34z m410 -340 c43 -58 62 -92 62 -113 0 -60 -46 -70 -98 -20 l-33 32 -27
-33 c-31 -36 -66 -42 -82 -13 -16 30 -12 56 16 124 57 137 74 140 162 23z
M2664 1514 c-22 -8 -40 -14 -42 -14 -11 0 12 -20 24 -20 9 0 47 -18 85 -41 71
-43 113 -47 126 -14 27 71 -91 125 -193 89z"/>
  </g>
</svg>
