<?xml version="1.0" encoding="UTF-8" standalone="no"?>
<svg
   width="69.585693mm"
   height="65.505219mm"
   viewBox="22.570692 20.527342 139.198955 139.198955"
   version="1.1"
   xmlns:xlink="http://www.w3.org/1999/xlink"
   xmlns="http://www.w3.org/2000/svg">
  <defs>
    <linearGradient id="rodeGrad">
      <stop style="stop-color:#ff5565;stop-opacity:1;" offset="0"/>
      <stop style="stop-color:#ff9655;stop-opacity:1;" offset="1"/>
    </linearGradient>
    <linearGradient
       xlink:href="#rodeGrad"
       id="rodeGradApp"
       gradientUnits="userSpaceOnUse"
       x1="0" y1="198.4252"
       x2="198.4252" y2="0"
       gradientTransform="matrix(20.1589,0,0,-20.1589,0,4000.0241)"/>
  </defs>
  <g transform="translate(0.000000,198.425197) scale(0.049606,-0.049606)" stroke="none">
    <path d="M2063 3530 c-100 -35 -198 -119 -302 -259 -34 -46 -73 -104 -88 -128
-25 -43 -25 -43 -43 -23 -9 11 -32 26 -51 34 -111 44 -264 -62 -357 -249 -59
-117 -76 -196 -75 -340 0 -66 -3 -86 -24 -120 -56 -94 -67 -128 -66 -200 1
-93 21 -137 100 -213 l65 -63 -37 -19 c-34 -17 -40 -18 -59 -5 -28 21 -85 19
-122 -4 -67 -41 -81 -139 -28 -208 l25 -33 -42 -48 c-92 -104 -125 -249 -77
-342 l23 -45 -42 -90 c-54 -113 -71 -182 -68 -266 7 -154 102 -259 235 -259
47 0 147 49 186 91 17 19 44 56 59 83 27 46 29 47 40 26 19 -35 135 -148 191
-185 97 -65 214 -113 317 -132 53 -9 248 -10 302 -1 203 35 382 141 462 275
28 49 35 48 93 -13 77 -81 179 -102 264 -56 69 38 99 86 100 165 l1 62 67 32
c82 41 150 113 174 185 30 91 16 206 -32 259 -13 14 -14 26 -7 61 5 24 9 60 8
81 0 20 2 37 6 37 14 0 87 77 104 110 98 188 -7 388 -235 446 l-67 18 26 49
c21 41 25 64 25 121 0 80 -20 128 -75 184 -46 47 -84 64 -155 70 -52 4 -71 0
-120 -22 -56 -26 -60 -26 -69 -9 -5 10 -27 35 -47 57 -21 21 -38 39 -38 41 0
1 20 32 44 68 107 160 118 307 30 401 -66 70 -166 80 -274 28 -59 -28 -61 -28
-56 -8 4 11 9 51 12 88 17 203 -127 330 -303 268z m159 -47 c95 -47 123 -162
80 -329 -12 -44 -24 -89 -29 -99 -5 -15 5 -11 43 17 167 122 299 126 361 9 46
-88 22 -184 -81 -328 -81 -115 -79 -108 -48 -111 53 -4 122 -79 122 -133 0
-35 4 -36 38 -4 143 134 362 47 362 -143 0 -65 -39 -142 -91 -177 -21 -16 -38
-29 -37 -31 2 -1 30 -4 63 -5 112 -5 225 -50 286 -116 94 -99 88 -247 -15
-341 -20 -18 -36 -30 -36 -27 0 3 -9 1 -20 -5 -15 -8 -19 -17 -14 -32 11 -35
6 -104 -10 -142 -13 -32 -13 -36 6 -53 53 -47 72 -164 40 -244 -35 -89 -151
-172 -249 -178 -9 -1 -9 -9 1 -34 40 -97 -22 -202 -126 -214 -59 -7 -109 16
-170 79 -26 26 -54 48 -62 48 -8 0 -21 7 -30 15 -14 14 -18 10 -41 -40 -62
-131 -216 -234 -415 -280 -67 -15 -279 -15 -350 0 -64 13 -187 65 -251 106
-79 51 -174 145 -225 222 l-38 58 -11 -38 c-31 -101 -94 -179 -175 -217 -112
-52 -225 9 -255 137 -23 99 1 207 76 345 l40 72 -28 37 c-25 33 -28 44 -28
112 1 88 17 128 88 207 54 60 69 109 37 119 -25 8 -51 63 -45 95 6 34 33 70
53 71 43 4 67 -2 85 -20 19 -18 20 -18 61 5 22 13 51 24 63 24 21 0 22 3 16
48 -3 26 -6 47 -7 47 -1 1 -26 20 -57 42 -72 53 -104 113 -103 194 1 36 8 71
21 95 11 22 31 62 46 89 22 44 26 65 30 175 4 101 9 138 29 192 101 273 327
408 405 243 l16 -33 54 85 c85 137 142 211 218 285 38 38 121 92 160 105 43
14 115 13 147 -4z M2070 3359 c-88 -40 -217 -198 -368 -454 -73 -123 -143
-186 -184 -164 -22 12 -23 53 -3 129 20 76 19 107 -5 120 -47 25 -171 -145
-195 -267 -11 -57 -15 -90 -20 -164 -5 -85 -19 -128 -64 -209 -55 -98 -35
-167 65 -218 45 -23 74 -66 74 -110 0 -27 20 -61 38 -63 71 -8 89 -21 99 -71
3 -15 14 -35 24 -44 15 -14 21 -14 34 -4 8 7 15 18 14 24 -3 26 2 36 19 36 22
0 42 -39 42 -80 0 -44 16 -77 41 -85 37 -12 61 40 38 80 -12 21 -4 78 13 88
13 9 22 7 37 -8 12 -10 20 -23 19 -29 -6 -30 14 -66 39 -72 39 -10 57 18 48
76 -14 91 -2 115 53 106 29 -4 39 -1 62 23 24 26 27 27 38 13 10 -16 11 -16
11 1 1 24 71 117 118 157 21 17 102 63 180 101 181 90 240 152 213 225 -12 31
-42 35 -92 12 -79 -36 -125 -23 -132 38 -6 44 25 97 130 228 99 123 124 166
124 211 0 82 -87 72 -219 -24 -89 -64 -123 -81 -165 -81 -34 0 -65 20 -67 43
0 7 -2 20 -4 29 -4 23 7 66 45 173 40 112 48 191 23 223 -25 30 -71 34 -123
11z m123 -651 c8 -12 4 -34 -18 -87 -24 -60 -27 -78 -21 -123 4 -29 8 -62 10
-73 6 -55 -54 -152 -117 -190 -24 -13 -54 -36 -68 -51 -32 -34 -71 -54 -108
-54 -31 0 -36 5 -84 80 -13 19 -35 41 -50 48 -18 9 -27 21 -27 38 0 13 5 25
10 25 6 1 15 3 20 4 6 1 14 3 18 4 17 2 98 89 188 201 124 156 176 203 218
197 10 -1 24 -10 29 -19z m-770 -408 l34 -29 23 24 c27 29 42 31 64 9 17 -16
15 -48 -4 -83 -9 -18 -7 -26 9 -48 25 -31 27 -56 6 -73 -13 -11 -20 -11 -40 0
-14 7 -26 11 -28 9 -2 -2 -10 -14 -19 -27 l-15 -22 -27 21 c-27 21 -35 66 -16
85 7 7 -3 24 -30 52 -41 42 -51 77 -28 100 19 19 34 15 71 -18z m331 -263 c6
-37 -17 -46 -57 -23 -30 17 -31 17 -52 -10 -20 -25 -22 -25 -38 -10 -9 10 -17
21 -17 25 0 21 42 126 53 133 17 11 105 -80 111 -115z M2824 2431 c-49 -22
-135 -115 -156 -170 -9 -22 -14 -41 -11 -41 2 0 24 11 48 25 28 17 68 29 117
34 93 11 103 16 121 53 15 31 8 80 -14 94 -32 19 -69 21 -105 5z M2480 2183
c-34 -14 -80 -50 -80 -63 0 -3 15 -6 33 -6 17 -1 48 -4 68 -8 27 -6 40 -4 52
9 47 46 -7 96 -73 68z M2919 2016 c-2 -2 -22 -6 -44 -10 -107 -15 -146 -37
-159 -88 -7 -29 -4 -51 14 -105 50 -150 29 -325 -65 -526 -44 -95 -45 -148 -3
-187 27 -25 69 -26 141 -1 31 11 80 22 109 26 94 11 112 16 152 38 99 54 116
167 31 203 -30 12 -41 11 -103 -8 -109 -32 -138 -15 -121 71 14 64 41 78 134
70 57 -5 95 25 95 74 0 61 -52 101 -114 88 -17 -4 -37 -6 -43 -5 -7 1 -17 2
-22 3 -16 2 -28 55 -19 87 15 60 60 73 147 43 80 -28 124 -25 163 10 27 24 33
36 33 71 0 36 -6 47 -41 80 -23 21 -59 44 -80 50 -37 11 -197 23 -205 16z
M2330 1983 c-117 -30 -188 -98 -177 -171 4 -22 17 -46 33 -60 38 -33 53 -85
49 -169 -4 -93 -25 -164 -86 -295 -40 -85 -49 -114 -44 -138 13 -57 53 -62
160 -17 33 14 83 27 110 29 71 7 118 30 173 85 184 184 209 499 54 661 -73 75
-168 102 -272 75z m133 -195 c32 -17 46 -33 63 -74 42 -101 -5 -256 -98 -328
-69 -52 -88 -25 -64 89 8 39 15 115 14 170 0 127 -1 121 18 139 18 19 38 20
67 4z M1993 1948 c-37 -22 -44 -56 -17 -82 22 -23 51 -20 68 7 15 22 16 35 2
75 -9 26 -11 26 -53 0z M1056 1832 c-9 -14 9 -31 32 -29 25 1 27 8 10 25 -14
14 -35 16 -42 4z M1259 1809 c-47 -13 -88 -57 -95 -101 -5 -30 -1 -40 24 -66
l31 -32 -15 -49 c-20 -68 -88 -219 -177 -393 -44 -85 -78 -166 -82 -192 -15
-100 20 -162 87 -153 20 3 48 13 62 23 42 32 86 127 102 224 23 136 43 190 73
190 19 0 29 -17 66 -115 87 -231 242 -373 470 -430 72 -18 218 -23 290 -11
117 21 197 56 291 126 88 66 120 169 70 227 -22 25 -31 28 -83 27 -74 0 -90
-5 -178 -53 -120 -66 -205 -90 -305 -87 -99 3 -112 6 -187 41 -75 34 -177 139
-226 233 -22 42 -36 80 -33 90 4 9 28 31 55 49 57 37 92 79 118 143 55 130 3
238 -139 292 -62 23 -167 31 -219 17z m207 -215 c14 -53 -43 -120 -110 -131
-28 -4 -34 -2 -39 17 -8 30 39 135 66 147 32 14 76 -3 83 -33z M1943 1751
c-209 -71 -394 -415 -320 -591 31 -73 112 -121 189 -114 174 17 348 262 350
494 1 60 -4 84 -22 120 -28 55 -62 88 -98 96 -15 3 -32 7 -38 9 -6 2 -34 -5
-61 -14z m30 -193 c20 -16 26 -61 15 -113 -30 -133 -142 -246 -188 -190 -15
18 -15 86 0 114 6 12 8 21 5 21 -14 0 61 123 92 150 37 33 51 36 76 18z M1058
1549 c-22 -23 -44 -52 -49 -66 -23 -61 -1 -115 39 -94 25 14 33 33 38 104 2
32 9 67 14 78 17 31 0 22 -42 -22z M2725 981 c-11 -11 96 -101 120 -101 24 0
55 23 55 41 0 18 -49 59 -72 60 -13 1 -40 2 -61 3 -20 1 -40 0 -42 -3z" fill="#000000" stroke="#ffffff" stroke-width="80"/>
    <path d="M2063 3530 c-100 -35 -198 -119 -302 -259 -34 -46 -73 -104 -88 -128
-25 -43 -25 -43 -43 -23 -9 11 -32 26 -51 34 -111 44 -264 -62 -357 -249 -59
-117 -76 -196 -75 -340 0 -66 -3 -86 -24 -120 -56 -94 -67 -128 -66 -200 1
-93 21 -137 100 -213 l65 -63 -37 -19 c-34 -17 -40 -18 -59 -5 -28 21 -85 19
-122 -4 -67 -41 -81 -139 -28 -208 l25 -33 -42 -48 c-92 -104 -125 -249 -77
-342 l23 -45 -42 -90 c-54 -113 -71 -182 -68 -266 7 -154 102 -259 235 -259
47 0 147 49 186 91 17 19 44 56 59 83 27 46 29 47 40 26 19 -35 135 -148 191
-185 97 -65 214 -113 317 -132 53 -9 248 -10 302 -1 203 35 382 141 462 275
28 49 35 48 93 -13 77 -81 179 -102 264 -56 69 38 99 86 100 165 l1 62 67 32
c82 41 150 113 174 185 30 91 16 206 -32 259 -13 14 -14 26 -7 61 5 24 9 60 8
81 0 20 2 37 6 37 14 0 87 77 104 110 98 188 -7 388 -235 446 l-67 18 26 49
c21 41 25 64 25 121 0 80 -20 128 -75 184 -46 47 -84 64 -155 70 -52 4 -71 0
-120 -22 -56 -26 -60 -26 -69 -9 -5 10 -27 35 -47 57 -21 21 -38 39 -38 41 0
1 20 32 44 68 107 160 118 307 30 401 -66 70 -166 80 -274 28 -59 -28 -61 -28
-56 -8 4 11 9 51 12 88 17 203 -127 330 -303 268z m159 -47 c95 -47 123 -162
80 -329 -12 -44 -24 -89 -29 -99 -5 -15 5 -11 43 17 167 122 299 126 361 9 46
-88 22 -184 -81 -328 -81 -115 -79 -108 -48 -111 53 -4 122 -79 122 -133 0
-35 4 -36 38 -4 143 134 362 47 362 -143 0 -65 -39 -142 -91 -177 -21 -16 -38
-29 -37 -31 2 -1 30 -4 63 -5 112 -5 225 -50 286 -116 94 -99 88 -247 -15
-341 -20 -18 -36 -30 -36 -27 0 3 -9 1 -20 -5 -15 -8 -19 -17 -14 -32 11 -35
6 -104 -10 -142 -13 -32 -13 -36 6 -53 53 -47 72 -164 40 -244 -35 -89 -151
-172 -249 -178 -9 -1 -9 -9 1 -34 40 -97 -22 -202 -126 -214 -59 -7 -109 16
-170 79 -26 26 -54 48 -62 48 -8 0 -21 7 -30 15 -14 14 -18 10 -41 -40 -62
-131 -216 -234 -415 -280 -67 -15 -279 -15 -350 0 -64 13 -187 65 -251 106
-79 51 -174 145 -225 222 l-38 58 -11 -38 c-31 -101 -94 -179 -175 -217 -112
-52 -225 9 -255 137 -23 99 1 207 76 345 l40 72 -28 37 c-25 33 -28 44 -28
112 1 88 17 128 88 207 54 60 69 109 37 119 -25 8 -51 63 -45 95 6 34 33 70
53 71 43 4 67 -2 85 -20 19 -18 20 -18 61 5 22 13 51 24 63 24 21 0 22 3 16
48 -3 26 -6 47 -7 47 -1 1 -26 20 -57 42 -72 53 -104 113 -103 194 1 36 8 71
21 95 11 22 31 62 46 89 22 44 26 65 30 175 4 101 9 138 29 192 101 273 327
408 405 243 l16 -33 54 85 c85 137 142 211 218 285 38 38 121 92 160 105 43
14 115 13 147 -4z M2070 3359 c-88 -40 -217 -198 -368 -454 -73 -123 -143
-186 -184 -164 -22 12 -23 53 -3 129 20 76 19 107 -5 120 -47 25 -171 -145
-195 -267 -11 -57 -15 -90 -20 -164 -5 -85 -19 -128 -64 -209 -55 -98 -35
-167 65 -218 45 -23 74 -66 74 -110 0 -27 20 -61 38 -63 71 -8 89 -21 99 -71
3 -15 14 -35 24 -44 15 -14 21 -14 34 -4 8 7 15 18 14 24 -3 26 2 36 19 36 22
0 42 -39 42 -80 0 -44 16 -77 41 -85 37 -12 61 40 38 80 -12 21 -4 78 13 88
13 9 22 7 37 -8 12 -10 20 -23 19 -29 -6 -30 14 -66 39 -72 39 -10 57 18 48
76 -14 91 -2 115 53 106 29 -4 39 -1 62 23 24 26 27 27 38 13 10 -16 11 -16
11 1 1 24 71 117 118 157 21 17 102 63 180 101 181 90 240 152 213 225 -12 31
-42 35 -92 12 -79 -36 -125 -23 -132 38 -6 44 25 97 130 228 99 123 124 166
124 211 0 82 -87 72 -219 -24 -89 -64 -123 -81 -165 -81 -34 0 -65 20 -67 43
0 7 -2 20 -4 29 -4 23 7 66 45 173 40 112 48 191 23 223 -25 30 -71 34 -123
11z m123 -651 c8 -12 4 -34 -18 -87 -24 -60 -27 -78 -21 -123 4 -29 8 -62 10
-73 6 -55 -54 -152 -117 -190 -24 -13 -54 -36 -68 -51 -32 -34 -71 -54 -108
-54 -31 0 -36 5 -84 80 -13 19 -35 41 -50 48 -18 9 -27 21 -27 38 0 13 5 25
10 25 6 1 15 3 20 4 6 1 14 3 18 4 17 2 98 89 188 201 124 156 176 203 218
197 10 -1 24 -10 29 -19z m-770 -408 l34 -29 23 24 c27 29 42 31 64 9 17 -16
15 -48 -4 -83 -9 -18 -7 -26 9 -48 25 -31 27 -56 6 -73 -13 -11 -20 -11 -40 0
-14 7 -26 11 -28 9 -2 -2 -10 -14 -19 -27 l-15 -22 -27 21 c-27 21 -35 66 -16
85 7 7 -3 24 -30 52 -41 42 -51 77 -28 100 19 19 34 15 71 -18z m331 -263 c6
-37 -17 -46 -57 -23 -30 17 -31 17 -52 -10 -20 -25 -22 -25 -38 -10 -9 10 -17
21 -17 25 0 21 42 126 53 133 17 11 105 -80 111 -115z M2824 2431 c-49 -22
-135 -115 -156 -170 -9 -22 -14 -41 -11 -41 2 0 24 11 48 25 28 17 68 29 117
34 93 11 103 16 121 53 15 31 8 80 -14 94 -32 19 -69 21 -105 5z M2480 2183
c-34 -14 -80 -50 -80 -63 0 -3 15 -6 33 -6 17 -1 48 -4 68 -8 27 -6 40 -4 52
9 47 46 -7 96 -73 68z M2919 2016 c-2 -2 -22 -6 -44 -10 -107 -15 -146 -37
-159 -88 -7 -29 -4 -51 14 -105 50 -150 29 -325 -65 -526 -44 -95 -45 -148 -3
-187 27 -25 69 -26 141 -1 31 11 80 22 109 26 94 11 112 16 152 38 99 54 116
167 31 203 -30 12 -41 11 -103 -8 -109 -32 -138 -15 -121 71 14 64 41 78 134
70 57 -5 95 25 95 74 0 61 -52 101 -114 88 -17 -4 -37 -6 -43 -5 -7 1 -17 2
-22 3 -16 2 -28 55 -19 87 15 60 60 73 147 43 80 -28 124 -25 163 10 27 24 33
36 33 71 0 36 -6 47 -41 80 -23 21 -59 44 -80 50 -37 11 -197 23 -205 16z
M2330 1983 c-117 -30 -188 -98 -177 -171 4 -22 17 -46 33 -60 38 -33 53 -85
49 -169 -4 -93 -25 -164 -86 -295 -40 -85 -49 -114 -44 -138 13 -57 53 -62
160 -17 33 14 83 27 110 29 71 7 118 30 173 85 184 184 209 499 54 661 -73 75
-168 102 -272 75z m133 -195 c32 -17 46 -33 63 -74 42 -101 -5 -256 -98 -328
-69 -52 -88 -25 -64 89 8 39 15 115 14 170 0 127 -1 121 18 139 18 19 38 20
67 4z M1993 1948 c-37 -22 -44 -56 -17 -82 22 -23 51 -20 68 7 15 22 16 35 2
75 -9 26 -11 26 -53 0z M1056 1832 c-9 -14 9 -31 32 -29 25 1 27 8 10 25 -14
14 -35 16 -42 4z M1259 1809 c-47 -13 -88 -57 -95 -101 -5 -30 -1 -40 24 -66
l31 -32 -15 -49 c-20 -68 -88 -219 -177 -393 -44 -85 -78 -166 -82 -192 -15
-100 20 -162 87 -153 20 3 48 13 62 23 42 32 86 127 102 224 23 136 43 190 73
190 19 0 29 -17 66 -115 87 -231 242 -373 470 -430 72 -18 218 -23 290 -11
117 21 197 56 291 126 88 66 120 169 70 227 -22 25 -31 28 -83 27 -74 0 -90
-5 -178 -53 -120 -66 -205 -90 -305 -87 -99 3 -112 6 -187 41 -75 34 -177 139
-226 233 -22 42 -36 80 -33 90 4 9 28 31 55 49 57 37 92 79 118 143 55 130 3
238 -139 292 -62 23 -167 31 -219 17z m207 -215 c14 -53 -43 -120 -110 -131
-28 -4 -34 -2 -39 17 -8 30 39 135 66 147 32 14 76 -3 83 -33z M1943 1751
c-209 -71 -394 -415 -320 -591 31 -73 112 -121 189 -114 174 17 348 262 350
494 1 60 -4 84 -22 120 -28 55 -62 88 -98 96 -15 3 -32 7 -38 9 -6 2 -34 -5
-61 -14z m30 -193 c20 -16 26 -61 15 -113 -30 -133 -142 -246 -188 -190 -15
18 -15 86 0 114 6 12 8 21 5 21 -14 0 61 123 92 150 37 33 51 36 76 18z M1058
1549 c-22 -23 -44 -52 -49 -66 -23 -61 -1 -115 39 -94 25 14 33 33 38 104 2
32 9 67 14 78 17 31 0 22 -42 -22z M2725 981 c-11 -11 96 -101 120 -101 24 0
55 23 55 41 0 18 -49 59 -72 60 -13 1 -40 2 -61 3 -20 1 -40 0 -42 -3z" fill="url(#rodeGradApp)"/>
  </g>
</svg>
